<svg width="40" height="40" viewBox="0 0 40 40" fill="none" xmlns="http://www.w3.org/2000/svg">
    <path fill-rule="evenodd" clip-rule="evenodd" d="m28.695 31.871-3.667-1.187A10.958 10.958 0 0 1 19.9 31.95c-6.075 0-11-4.925-11-11s4.925-11 11-11 11 4.925 11 11c0 1.752-.491 3.703-1.294 5.3l1.115 3.63c.583 1.439-.333 2.536-2.026 1.991zM10.5 20.95a9.4 9.4 0 0 0 9.4 9.4c1.783 0 3.308-.41 4.729-1.272l.003-.002c.03-.018.158-.097.284-.098.24.046 4.112 1.232 4.112 1.232s-1.094-3.567-1.15-3.993a.465.465 0 0 1 .073-.266l.003-.005c.796-1.395 1.346-3.295 1.346-4.996a9.4 9.4 0 1 0-18.8 0z" fill="#fff"/>
</svg>
