<svg width="24" height="24" viewBox="0 0 24 24" fill="none" xmlns="http://www.w3.org/2000/svg">
    <path fill-rule="evenodd" clip-rule="evenodd" d="M19.8 10.1c0-5.357-4.343-9.7-9.7-9.7C4.743.4.4 4.743.4 10.1c0 5.357 4.343 9.7 9.7 9.7a9.658 9.658 0 0 0 5.886-1.99l.003-.002a.74.74 0 0 1 .399-.163c.255-.012.454.19.636.376l.048.048 5.423 5.463.087.075a.7.7 0 0 0 .907-1.06l-5.688-5.73-.006-.007c-.118-.118-.162-.163-.164-.344a.67.67 0 0 1 .163-.459A9.658 9.658 0 0 0 19.8 10.1zm-18 0a8.3 8.3 0 1 1 16.6 0 8.3 8.3 0 0 1-16.6 0z" fill="#fff"/>
</svg>
