<svg width="24" height="24" viewBox="0 0 24 24" fill="none" xmlns="http://www.w3.org/2000/svg">
    <path fill-rule="evenodd" clip-rule="evenodd" d="M7.15.35h10a6.8 6.8 0 0 1 6.8 6.8v10a6.8 6.8 0 0 1-6.8 6.8h-10a6.8 6.8 0 0 1-6.8-6.8v-10a6.8 6.8 0 0 1 6.8-6.8zm0 1.6a5.2 5.2 0 0 0-5.2 5.2v10a5.2 5.2 0 0 0 5.2 5.2h10a5.2 5.2 0 0 0 5.2-5.2v-10a5.2 5.2 0 0 0-5.2-5.2h-10zm4.894 3.35-.101.007a.75.75 0 0 0-.649.743v5.294H6l-.102.007a.75.75 0 0 0-.648.743l.007.102a.75.75 0 0 0 .743.648h5.294v5.295l.007.102a.75.75 0 0 0 .743.648l.102-.007a.75.75 0 0 0 .648-.743v-5.295h5.295l.102-.006a.75.75 0 0 0 .648-.744l-.007-.101a.75.75 0 0 0-.743-.649h-5.295V6.05l-.007-.102a.75.75 0 0 0-.743-.648z" fill="#fff"/>
</svg>
