<svg width="46" height="44" viewBox="0 0 46 44" fill="none" xmlns="http://www.w3.org/2000/svg">
    <g clip-path="url(#s02iq9aowa)">
        <path fill-rule="evenodd" clip-rule="evenodd" d="M26.34 9.753a.8.8 0 0 0-1.25-.991l-2.098 2.307-2.187-2.318-.087-.08a.8.8 0 0 0-1.044.047l-.08.088a.8.8 0 0 0 .047 1.043l1.482 1.571H18.3l-.231.004A6.3 6.3 0 0 0 12 17.72v8.98l.004.23A6.3 6.3 0 0 0 18.3 33h9.385l.231-.004a6.3 6.3 0 0 0 6.07-6.296v-7.02l-1.6.393V26.7l-.006.215a4.7 4.7 0 0 1-4.695 4.485H18.3l-.215-.005A4.7 4.7 0 0 1 13.6 26.7v-8.98l.005-.215A4.7 4.7 0 0 1 18.3 13.02h8.177l.646-1.6h-2.289l1.44-1.582.067-.085zm-3.58 10.559-5.58 1.698-.102.038a.8.8 0 0 0 .567 1.492l4.548-1.383v1.735l.006.105a.8.8 0 0 0 1.024.66l5.6-1.68.101-.039a.8.8 0 0 0-.562-1.494l-4.57 1.372v-1.739l-.006-.105a.8.8 0 0 0-1.026-.66z" fill="#fff"/>
        <circle cx="31.984" cy="14.331" r="4" fill="#ED4956"/>
    </g>
    <defs>
        <clipPath id="s02iq9aowa">
            <path fill="#fff" transform="translate(12 8.5)" d="M0 0h24v25H0z"/>
        </clipPath>
    </defs>
</svg>
