<svg width="46" height="44" viewBox="0 0 46 44" fill="none" xmlns="http://www.w3.org/2000/svg">
    <path fill-rule="evenodd" clip-rule="evenodd" d="M30.497 11.373a.8.8 0 0 1 .69 1.206L20.019 31.594c-.366.625-1.308.48-1.47-.226l-2.543-11.1-7.761-7.521a.8.8 0 0 1 .557-1.375h21.695zm-2.226 3.01-10.629 5.865 2.017 8.8 8.612-14.665zm-17.495-1.41h16.738l-10.665 5.885-6.072-5.885z" fill="#fff"/>
    <circle cx="30.885" cy="11" r="9" fill="#ED4956"/>
    <path d="M32.225 6.69v8.56h-1.412V8.365l-2.092.71V7.907l3.334-1.219h.17z" fill="#fff"/>
</svg>
