<svg width="24" height="22" viewBox="0 0 24 22" fill="none" xmlns="http://www.w3.org/2000/svg">
    <path fill-rule="evenodd" clip-rule="evenodd" d="M21.11 13.71c4.243-4.279 3.085-10.413-1.467-12.392-2.93-1.14-5.497-.389-7.57 2.15-2.072-2.539-4.638-3.29-7.57-2.15-4.55 1.98-5.709 8.113-1.466 12.392l.325.33c2.093 2.107 4.865 4.537 8.313 7.29h.798c3.629-2.897 6.508-5.438 8.637-7.62zm-8.708-8.114c.15-.242.577-.855.577-.855 1.727-2.323 3.716-2.96 6.093-2.036 3.555 1.546 4.474 6.418.968 9.954l-.318.323c-1.823 1.835-4.182 3.93-7.076 6.282l-.572.464c-3.332-2.684-5.989-5.041-7.967-7.07C.6 9.124 1.52 4.252 5.075 2.706c2.377-.924 4.366-.287 6.093 2.036 0 0 .428.613.577.855l.328.628.329-.628z" fill="#fff"/>
</svg>
