<svg width="24" height="23" viewBox="0 0 24 23" fill="none" xmlns="http://www.w3.org/2000/svg">
    <path fill-rule="evenodd" clip-rule="evenodd" d="M11.85 22.078H4.32a4.3 4.3 0 0 1-4.295-4.091l-.005-.209V7.266c0-1.866 1.787-4.104 3.65-4.238l.175-.006h1.59a.7.7 0 0 0 .49-.2l.071-.081L7.354.923A2.3 2.3 0 0 1 9.016.007L9.196 0h5.208a2.3 2.3 0 0 1 1.842.923l1.358 1.818a.7.7 0 0 0 .56.28h1.592c1.924 0 3.824 2.321 3.824 4.245v10.512a4.3 4.3 0 0 1-4.3 4.3h-7.43zM14.404 1.6H9.196a.7.7 0 0 0-.488.199l-.072.082-1.358 1.817a2.3 2.3 0 0 1-1.662.917l-.18.007H3.844c-1 0-2.13 1.478-2.22 2.517l-.005.127v10.512a2.7 2.7 0 0 0 2.53 2.695l.17.005h14.96a2.7 2.7 0 0 0 2.7-2.7V7.266c0-1.04-1.184-2.644-2.224-2.644h-1.591a2.3 2.3 0 0 1-1.843-.924l-1.358-1.817a.7.7 0 0 0-.56-.281zM11.75 18.1a5.85 5.85 0 1 0 0-11.7 5.85 5.85 0 0 0 0 11.7zm0-1.7a4.15 4.15 0 1 1 0-8.3 4.15 4.15 0 0 1 0 8.3z" fill="#fff"/>
</svg>
