<svg width="103" height="30" viewBox="0 0 103 30" fill="none" xmlns="http://www.w3.org/2000/svg">
    <path fill-rule="evenodd" clip-rule="evenodd" d="M3.349 11.616c-.313.545-4.123-1.12-3.207-5.056C.865 3.452 3.154.978 5.236.1c.871-.366 2.717.336 2.73 1.005C8.01 3.43 8 7.07 7.995 9.054a812.851 812.851 0 0 0-.003 1.369c-.002 1.728-.005 4.32-.064 6.011-.053 1.549-.349 2.974-1.195 4.161-.705.99-1.924 1.604-2.21 1.346-.175-.159-.07-.491.08-.971.068-.22.146-.468.212-.746.207-.875.322-1.76.322-4.565 0-1.198.02-5.02.038-8.246.012-2.358.023-4.397.023-4.865v-.08c0-.567.001-.862-.272-.632C3.391 3.129 2.17 6.076 2.45 8.715c.117 1.105.478 1.676.727 2.069.21.333.34.537.172.832zm97.076 6.394c.54 0 .958-.414 1.357-2.245.115-.527.254-.84.558-.84.392 0 .522.494.433 1.134-.366 2.657-1.455 3.667-2.785 3.667-.623 0-2.412-.303-3.03-3.01-.456-1.998-.344-5.652-.294-6.769.001-.03-.04-.186-.127.012l-.019.043c-.252.568-.887 2-1.272 3.58-.605 2.484-.657 4.212-.627 4.492.06.573-.624.663-.95.663-.515 0-1.147-.042-1.658-.944-.18-.315-.413-1.311-.587-2.997a53.416 53.416 0 0 1-.278-4.51l-.002-.068c-.006-.287-.178-.242-.33.029a8.797 8.797 0 0 0-.022.04c-.28.498-.838 1.49-1.435 3.943-.282 1.16-.324 2.631-.357 3.795-.01.342-.018.658-.032.931-.024.459-.197.636-.419.68-.32.065-1.185.213-2.033-.1-.191-.071-.455-.218-.5-.335-.074-.191-.121-.797-.15-1.54-.715 1.685-1.594 2.065-2.521 2.065-.89 0-2.444-.616-2.764-2.61 0 0-.191.398-.528.857-1.49 2.037-4.428 2.557-5.948.155a4.182 4.182 0 0 1-.207-.375c-.538 1.175-1.542 1.966-2.592 1.966-.897 0-2.41-.607-3.08-2.492-.968-2.715.064-6.772.154-7.129l.003-.013c.054-.21-.03-.27-.317-.25-.901.058-1.746.051-1.746.051-.497 1.566-1.47 3.578-2.376 5.077a25.86 25.86 0 0 1-2.539 3.479 687.685 687.685 0 0 0 .054 3.228c.034 2.218-.431 4.464-1.143 5.507-.809 1.186-2.126 2.033-3.662 1.911-1.448-.114-3.36-.989-3.198-3.342.127-1.843 1.859-3.426 4.139-5.511l.01-.01 1.363-1.247-.043-1.265a9.548 9.548 0 0 1-.183.26c-1.481 2.04-4.43 2.557-5.949.155-.1-.16-.193-.327-.277-.503-.722 1.62-1.751 2.09-2.748 2.09-.89 0-2.445-.673-2.66-2.599 0 0-.07.227-.528.857-1.481 2.04-4.43 2.557-5.949.155a5.923 5.923 0 0 1-.729-1.776c-.578 1.672-1.9 3.373-3.218 3.373-1.973 0-3.107-1.735-3.374-4.801-1.49 3.55-3.63 4.926-6.302 4.837-.686-.023-1.761-.224-2.261-.447-.581-.258-1.142-.553-.988-1.111.158-.574.435-1.038.92-1.402.186-.14.497-.1.7.034.165.107.288.2.405.29.155.116.299.225.513.35 1.294.758 2.02-.022 2.214-.778.252-.988-.128-2.031-1.287-3.128a60.42 60.42 0 0 0-.924-.851c-.178-.162-.352-.32-.518-.473a889.266 889.266 0 0 1-2.44 4.079c-1.467 2.435-2.835 3.398-3.806 3.398-1.269 0-2.157-.903-1.972-5.772.037-.953.082-1.994.12-2.892.037-.818.067-1.518.08-1.926.007-.194-.129-.187-.248-.069-.683.678-2.135 2.585-3.249 6.494-.608 2.137-.701 2.943-.768 3.52-.011.1-.022.195-.035.287-.07.52-1.433.345-1.682.294a.927.927 0 0 1-.57-.363c-.14-.175-.253-.47-.323-.832-.07-.361-.089-1.188-.089-1.896l.06-9.326c0-.303.164-.455.491-.455.687 0 1.46.321 1.75.478.17.092.245.227.245.367l-.036 5.96s.425-1.138.641-1.762c1.718-4.957 3.536-5.043 4.166-5.043.42 0 1.147.412 1.488.62.56.345.895.725.87 1.392l-.058 1.442c-.06 1.479-.115 2.836-.115 3.82v.06c0 1.485 0 3.048.521 3.048.624 0 1.438-1.408 2.501-3.246l.194-.335c.417-.72.91-1.648 1.268-2.338a5.138 5.138 0 0 1-.138-.165c-.593-.742-.755-1.457-.452-2.42.39-1.242 1.7-2.406 3.29-2.042.961.22.944 1.22.552 2.094-.552 1.233-1.176 1.846-1.176 1.846 1.077.795 2.039 1.52 2.526 1.903 1.323 1.04 2.057 2.267 1.697 3.902 0 0 1.675-1.335 2.15-3.806a59.713 59.713 0 0 1-.002-.43c0-1.397.039-5.92.039-5.92-.347-.011-.765-.021-1.19-.032-.63-.015-1.277-.031-1.724-.048-.65-.025-.143-2.041.328-2.041.253 0 .81.024 1.369.049.558.025 1.116.05 1.37.05 0 0 .047-2.58.139-3.46.06-.58.373-.72 1.062-.578.5.103.92.198 1.39.396l.017.007c.195.083.513.216.492.469-.027.312-.14 3.266-.14 3.266s1.257.092 1.708.102c.536.012 1.89.084 2.08.166.423.181.029 1.647-.38 1.668-.593.03-1.047.03-1.486.031-.166 0-.33 0-.498.003-.238.002-1.467.023-1.467.023-.032.43-.226 4.879-.226 8.004 0 2.347.541 3.447 1.11 3.447.973 0 2.161-1.892 2.43-3.534-.004-.578.032-1.197.113-1.857.281-2.286.827-3.319 1.502-4.25 1.035-1.429 2.39-1.777 3.695-1.39.484.143 1.213.637 1.665 1.347v-.512c0-.222.235-.52.568-.545.253-.018.582.014.964.102.364.084 1.147.312 1.153.764.001.063-.005.218-.013.441-.01.298-.026.717-.036 1.2-.01.497-.024.926-.037 1.356-.027.84-.054 1.68-.054 3.024 0 3.478.49 4.24 1.353 4.24.675 0 1.272-1.07 1.48-2.094-.193-1.022-.219-2.235-.078-3.663.152-1.531.686-3.13 1.503-4.27 1.027-1.434 2.389-1.777 3.694-1.39.484.143 1.213.637 1.666 1.347 0 0 0-.4-.002-.464-.009-.345.323-.636.873-.594.437.034.857.13 1.213.27.402.158.596.283.6.614.001.062-.004.211-.012.427-.011.294-.027.71-.037 1.197a277.299 277.299 0 0 0-.045 6.944c.424-.577.752-1.12 1.182-1.852.802-1.366 1.579-3.257 1.896-4.704 0 0-.966-.558-.81-1.74.099-.744.359-1.158.74-1.509.64-.588 2.646-.737 2.43 1.104-.04.35-.09.55-.09.55a32.059 32.059 0 0 0 2.368-.43c.89-.208 1.51-.04 1.8.292.316.36.443.738.287 1.457-.065.303-.13.588-.191.863-.283 1.26-.515 2.29-.556 3.655-.076 2.528.575 3.99 1.472 3.99.618 0 1.183-.538 1.487-1.85-.251-1.163-.298-2.537-.156-3.893.194-1.854.686-3.145 1.502-4.285 1.028-1.434 2.39-1.776 3.695-1.39.484.143 1.213.638 1.666 1.348l-.002-.493c0-.316.248-.546.6-.566.248-.014.566.019.932.103.365.085 1.148.313 1.154.764.001.063-.005.218-.013.442-.01.298-.026.717-.036 1.2-.01.496-.024.926-.037 1.355-.027.84-.054 1.681-.054 3.025 0 3.478.407 4.24 1.27 4.24.86 0 1.653-1.821 1.897-3.162v-.413c0-2.589.055-6.166.067-6.972l.002-.165c0-.36.109-.605.55-.605.358 0 1.201.207 1.63.33.094.028.41.181.408.64-.005 1.216-.01 4.42-.01 4.42s.273-.803.664-1.99c.482-1.462.946-2.695 1.346-3.153.462-.56 1.746-.09 2.168.177.652.41.777.911.78 1.5.02 2.75.16 4.188.24 5.019l.023.225c.01.12.073.11.08.058.116-.987.614-3.416 1.884-6.476.449-1.08 1.348-.754 1.969-.528l.006.002c1.444.523 1.592 1.055 1.564 1.592-.14 2.614-.158 5.242-.049 6.67.14 1.815.682 2.722 1.286 2.722zm-57.688-1.49c.697 2.233 2.276 1.743 3.075.198.441-.854.716-2.03.792-3.435.16-2.926-.446-4.522-1.69-4.644-1.213-.118-1.99 1.13-2.3 2.89-.208 1.186-.379 3.381.123 4.991zm12.162 0c.673 2.24 2.298 1.754 3.075.198.376-.754.721-2.087.792-3.415.177-3.295-.44-4.664-1.69-4.664-1.287 0-2.004 1.503-2.299 3.122-.228 1.248-.338 3.229.122 4.76zm.566 9.456c-.324 1.767 1.238 2.423 2.4 1.548.82-.616 1.202-2.74 1.219-5.162.006-.948.004-1.403.003-1.486v-.014c-1.983 1.952-3.336 3.55-3.622 5.114zM76.21 16.52c.685 2.237 2.298 1.754 3.075.198.401-.804.725-1.943.792-3.401.138-2.96-.446-4.561-1.69-4.678-1.263-.118-2.026 1.191-2.299 2.924-.268 1.702-.25 3.738.122 4.957z" fill="#fff"/>
</svg>
