<svg width="165" height="47" viewBox="0 0 165 47" fill="none" xmlns="http://www.w3.org/2000/svg">
    <path fill-rule="evenodd" clip-rule="evenodd" d="M5.528 18.638c-.5.872-6.604-1.794-5.137-8.1C1.549 5.56 5.216 1.599 8.551.194 9.948-.395 12.904.73 12.925 1.8c.072 3.725.055 9.557.046 12.733l-.003 1.383-.001.81c-.004 2.768-.009 6.92-.102 9.629-.085 2.48-.56 4.763-1.915 6.665-1.13 1.585-3.082 2.569-3.54 2.155-.28-.254-.113-.786.128-1.555.11-.35.235-.75.34-1.195.331-1.402.516-2.82.516-7.313 0-1.918.033-8.04.06-13.208.02-3.776.037-7.043.037-7.792v-.13c.001-.907.002-1.38-.435-1.011-2.46 2.071-4.414 6.793-3.967 11.019.188 1.77.767 2.685 1.165 3.314.338.533.546.861.275 1.333zm155.496 10.241c.866 0 1.536-.662 2.175-3.596.184-.844.406-1.345.893-1.345.628 0 .837.791.695 1.816-.588 4.256-2.331 5.874-4.462 5.874-.998 0-3.863-.485-4.853-4.821-.731-3.201-.551-9.053-.471-10.842.002-.049-.063-.298-.203.018l-.031.07c-.404.91-1.421 3.202-2.038 5.734-.969 3.978-1.052 6.747-1.005 7.195.099.919-.998 1.063-1.522 1.063-.824 0-1.836-.068-2.655-1.512-.287-.505-.66-2.101-.94-4.801a85.278 85.278 0 0 1-.445-7.224l-.003-.11c-.01-.46-.284-.388-.528.047l-.036.064c-.448.797-1.342 2.387-2.299 6.316-.452 1.86-.518 4.215-.571 6.079-.016.548-.03 1.054-.052 1.492-.038.734-.315 1.018-.67 1.09-.513.103-1.898.34-3.257-.162-.307-.114-.729-.349-.801-.536-.119-.306-.194-1.278-.242-2.467-1.143 2.7-2.552 3.307-4.037 3.307-1.426 0-3.915-.987-4.427-4.18 0 0-.306.637-.845 1.373-2.389 3.262-7.094 4.095-9.529.248a6.803 6.803 0 0 1-.331-.6c-.862 1.881-2.47 3.148-4.152 3.148-1.437 0-3.86-.971-4.934-3.991-1.549-4.35.102-10.848.248-11.42l.005-.02c.085-.338-.047-.432-.509-.402-1.444.094-2.796.083-2.796.083-.797 2.508-2.354 5.731-3.807 8.132a41.45 41.45 0 0 1-4.066 5.572c.017 1.108.035 2.174.053 3.15l.034 2.021c.054 3.553-.692 7.15-1.832 8.822-1.295 1.9-3.405 3.256-5.865 3.061-2.32-.184-5.383-1.584-5.123-5.354.204-2.952 2.977-5.488 6.63-8.828l.016-.014 2.184-1.999-.07-2.026c-.085.125-.182.264-.293.417-2.373 3.267-7.095 4.095-9.529.248a7.913 7.913 0 0 1-.444-.806c-1.156 2.595-2.805 3.348-4.402 3.348-1.425 0-3.916-1.078-4.262-4.163 0 0-.112.363-.845 1.373-2.372 3.267-7.094 4.095-9.528.247-.508-.803-.902-1.752-1.167-2.845-.926 2.68-3.044 5.403-5.156 5.403-3.159 0-4.977-2.779-5.404-7.69-2.387 5.687-5.815 7.891-10.095 7.748-1.098-.036-2.82-.359-3.622-.715-.93-.413-1.828-.886-1.582-1.78.254-.92.697-1.662 1.474-2.246.298-.225.796-.16 1.122.054.263.172.46.322.648.464.247.187.479.362.822.562 2.072 1.213 3.236-.035 3.546-1.246.404-1.584-.205-3.254-2.061-5.01-.5-.475-1.001-.93-1.48-1.365-.286-.26-.564-.512-.83-.758a1421.858 1421.858 0 0 1-3.909 6.534c-2.35 3.902-4.541 5.444-6.096 5.444-2.032 0-3.455-1.446-3.159-9.246.059-1.526.131-3.193.194-4.633.057-1.31.106-2.43.128-3.085.01-.31-.208-.299-.399-.11-1.093 1.086-3.42 4.141-5.203 10.403-.975 3.423-1.124 4.714-1.23 5.637a22 22 0 0 1-.057.461c-.114.832-2.296.553-2.694.47-.429-.087-.688-.301-.913-.581-.225-.28-.406-.752-.518-1.332-.113-.58-.143-1.903-.143-3.038l.097-14.938c0-.485.262-.728.786-.728 1.101 0 2.34.513 2.803.764.273.148.393.365.393.589l-.059 9.547s.682-1.823 1.029-2.824c2.75-7.94 5.662-8.076 6.671-8.076.674 0 1.838.658 2.384.993.898.552 1.434 1.16 1.393 2.229-.03.78-.061 1.555-.092 2.31-.096 2.368-.184 4.543-.184 6.117v.097c0 2.38 0 4.883.835 4.883 1 0 2.303-2.255 4.006-5.2l.31-.536a102.2 102.2 0 0 0 2.032-3.745 8.38 8.38 0 0 1-.222-.265c-.95-1.189-1.209-2.333-.724-3.875.626-1.99 2.725-3.855 5.27-3.272 1.54.353 1.513 1.955.885 3.354-.886 1.976-1.884 2.958-1.884 2.958a201.79 201.79 0 0 1 4.046 3.048c2.118 1.665 3.295 3.631 2.719 6.25 0 0 2.682-2.138 3.443-6.097a95.63 95.63 0 0 1-.003-.69c0-2.236.062-9.482.062-9.482-.556-.017-1.225-.033-1.905-.05-1.012-.025-2.046-.05-2.762-.078-1.04-.04-.229-3.27.524-3.27.405 0 1.3.04 2.194.08.894.04 1.788.079 2.193.079 0 0 .076-4.131.224-5.542.097-.93.598-1.151 1.702-.924.799.164 1.472.317 2.226.634l.027.011c.313.132.822.346.787.75-.042.5-.223 5.232-.223 5.232s2.012.148 2.735.164c.859.019 3.027.134 3.334.265.676.291.045 2.639-.611 2.672-.948.048-1.677.05-2.38.05-.266.001-.528.001-.798.004-.38.005-2.349.038-2.349.038-.052.687-.363 7.815-.363 12.821 0 3.759.868 5.522 1.78 5.522 1.557 0 3.46-3.031 3.892-5.661-.008-.926.05-1.917.18-2.976.45-3.661 1.326-5.315 2.406-6.807 1.658-2.288 3.828-2.846 5.918-2.227.776.23 1.943 1.021 2.669 2.158v-.82c0-.356.375-.833.91-.873.404-.03.931.022 1.542.163.583.135 1.838.5 1.848 1.224.001.1-.008.349-.02.707-.018.477-.043 1.148-.059 1.923-.016.795-.038 1.483-.06 2.17a135.104 135.104 0 0 0-.085 4.844c0 5.572.786 6.791 2.167 6.791 1.081 0 2.037-1.714 2.37-3.353-.309-1.637-.35-3.58-.124-5.867.242-2.453 1.098-5.015 2.406-6.84 1.645-2.297 3.827-2.846 5.918-2.227.776.23 1.943 1.021 2.668 2.158 0 0 0-.64-.003-.744-.014-.552.518-1.018 1.4-.95a6.837 6.837 0 0 1 1.942.433c.644.253.954.453.961.982.002.1-.007.339-.02.684-.018.47-.043 1.137-.059 1.918a445.12 445.12 0 0 0-.072 11.123c.679-.924 1.206-1.793 1.894-2.966 1.284-2.19 2.528-5.218 3.036-7.536 0 0-1.547-.893-1.296-2.786.158-1.192.574-1.855 1.186-2.418 1.025-.942 4.237-1.181 3.892 1.768-.066.563-.146.881-.146.881 1.328-.196 2.779-.452 3.795-.689 1.425-.333 2.416-.063 2.882.468.507.579.709 1.182.46 2.335-.104.484-.207.942-.306 1.382-.454 2.017-.826 3.668-.892 5.854-.121 4.049.922 6.39 2.359 6.39.991 0 1.895-.861 2.382-2.962-.403-1.863-.477-4.065-.25-6.236.31-2.97 1.099-5.038 2.406-6.863 1.646-2.297 3.828-2.846 5.918-2.227.776.23 1.943 1.021 2.668 2.158 0 0-.003-.516-.003-.788 0-.507.399-.876.962-.907.398-.023.907.03 1.494.166.583.135 1.837.5 1.848 1.223.001.101-.008.35-.021.707-.017.477-.042 1.149-.058 1.923-.016.795-.038 1.483-.06 2.17a134.496 134.496 0 0 0-.086 4.845c0 5.572.652 6.79 2.033 6.79 1.38 0 2.649-2.915 3.041-5.063l-.002-.66c0-4.148.088-9.879.108-11.17l.004-.264c0-.574.173-.969.881-.969.573 0 1.924.332 2.609.53.153.044.658.29.654 1.024-.007 1.947-.015 7.081-.015 7.081s.437-1.287 1.064-3.19c.772-2.34 1.515-4.315 2.156-5.049.74-.897 2.796-.143 3.473.283 1.043.658 1.244 1.46 1.25 2.403.03 4.407.255 6.708.385 8.04l.034.36c.018.192.119.175.128.093.188-1.58.984-5.471 3.019-10.373.719-1.73 2.159-1.207 3.154-.846l.009.003c2.313.838 2.551 1.69 2.505 2.55-.224 4.187-.252 8.397-.077 10.684.223 2.908 1.092 4.36 2.058 4.36zm-92.403-2.386c1.115 3.577 3.646 2.792 4.924.317.707-1.368 1.148-3.25 1.27-5.503.254-4.686-.715-7.243-2.709-7.437-1.941-.19-3.185 1.809-3.681 4.628-.335 1.9-.609 5.416.196 7.995zm19.48 0c1.08 3.589 3.681 2.81 4.926.317.602-1.207 1.155-3.343 1.269-5.47.282-5.278-.705-7.47-2.709-7.47-2.06 0-3.208 2.406-3.681 5-.365 2-.541 5.172.196 7.624zm.906 15.146c-.518 2.831 1.984 3.882 3.846 2.481 1.313-.988 1.924-4.39 1.952-8.27.01-1.518.006-2.248.005-2.38v-.021c-3.176 3.126-5.344 5.684-5.803 8.19zm33.233-15.146c1.096 3.583 3.68 2.81 4.924.317.643-1.287 1.161-3.113 1.27-5.448.219-4.741-.714-7.306-2.709-7.492-2.022-.19-3.244 1.907-3.681 4.683-.43 2.726-.402 5.988.196 7.94z" fill="#fff"/>
</svg>
