<svg width="40" height="39" viewBox="0 0 40 39" fill="none" xmlns="http://www.w3.org/2000/svg">
    <path fill-rule="evenodd" clip-rule="evenodd" d="M39.103 6.426A6.016 6.016 0 0 0 33.086.409H29.58a2.479 2.479 0 0 0-2.51 2.172 2.405 2.405 0 0 0 2.408 2.641h3.61a1.205 1.205 0 0 1 1.203 1.204v3.508a2.479 2.479 0 0 0 2.172 2.509 2.406 2.406 0 0 0 2.641-2.407v-3.61zM.595 9.934a2.479 2.479 0 0 0 2.172 2.509 2.406 2.406 0 0 0 2.642-2.407v-3.61c0-.665.538-1.203 1.203-1.203h3.508a2.479 2.479 0 0 0 2.509-2.173A2.406 2.406 0 0 0 10.222.41h-3.61A6.016 6.016 0 0 0 .595 6.426v3.508zM.595 32.9a6.016 6.016 0 0 0 6.017 6.017h3.61a2.406 2.406 0 0 0 2.407-2.641 2.48 2.48 0 0 0-2.509-2.173H6.612A1.203 1.203 0 0 1 5.41 32.9v-3.508a2.479 2.479 0 0 0-2.173-2.509 2.406 2.406 0 0 0-2.64 2.407v3.61zM39.103 29.29a2.406 2.406 0 0 0-2.64-2.407 2.48 2.48 0 0 0-2.173 2.509V32.9a1.205 1.205 0 0 1-1.204 1.203h-3.508a2.478 2.478 0 0 0-2.509 2.172 2.406 2.406 0 0 0 2.408 2.642h3.61a6.016 6.016 0 0 0 6.016-6.017v-3.61zM19.47 7.027h.759A11.32 11.32 0 0 1 31.282 18.34c0 5.007-3.42 8.888-5.922 11.726l-.017.019-.481.541a6.66 6.66 0 0 1-10.019 0l-.48-.541c-2.51-2.834-5.945-6.72-5.945-11.745A11.316 11.316 0 0 1 19.47 7.027zm2.268 19.868c2.095-2.372 4.73-5.356 4.73-8.556a6.567 6.567 0 0 0-6.396-6.498h-.445a6.566 6.566 0 0 0-6.396 6.498c0 3.205 2.653 6.203 4.757 8.58l.478.542a1.847 1.847 0 0 0 2.774 0c.161-.185.328-.373.498-.566z" fill="#007BFF"/>
    <path fill-rule="evenodd" clip-rule="evenodd" d="M22.256 18.46a2.407 2.407 0 1 1-4.813 0 2.407 2.407 0 0 1 4.813 0" fill="#007BFF"/>
</svg>
