<svg width="18" height="17" viewBox="0 0 18 17" fill="none" xmlns="http://www.w3.org/2000/svg">
    <path fill-rule="evenodd" clip-rule="evenodd" d="M.711.263v14.329h14.514V.263H.71zm10.563 2.524a1.242 1.242 0 1 1 0 2.484 1.242 1.242 0 0 1 0-2.484zm.315 5.932c.353 0 .683.138.93.387l1.967 1.986V.993H1.443v7.942L4.37 6.348c.226-.201.513-.31.805-.31.385 0 .735.181.971.497l2.973 4.012 1.572-1.475a1.319 1.319 0 0 1 .899-.352zm4.04-7.344v13.62H1.823v.709h14.514V1.374h-.708zm1.11 14.733V2.486h.71v14.331H2.937v-.71H16.74z" fill="#fff"/>
</svg>
