<svg width="14" height="12" viewBox="0 0 14 12" fill="none" xmlns="http://www.w3.org/2000/svg">
    <path fill-rule="evenodd" clip-rule="evenodd" d="M0 11.223V.723h14v10.5h-2.1v-.35a1.05 1.05 0 0 0-2.1 0v.35H8.05v-.35a1.05 1.05 0 0 0-2.1 0v.35H4.2v-.35a1.05 1.05 0 0 0-2.1 0v.35H0zm1.4-2.8.167-.5c.117-.352.37-.643.702-.81l.593-.296a.7.7 0 0 0 .366-.456l.109-.433h.005a2.449 2.449 0 0 1-.542-1.53v-.175a1.4 1.4 0 0 1 2.8 0v.175c0 .563-.197 1.1-.542 1.53h.006l.108.433a.7.7 0 0 0 .366.456l.593.297c.332.166.585.457.702.809l.167.5H1.4zm10.5-3.5H7.7v-1.4h4.2v1.4zm-1.4 2.1H7.7v-1.4h2.8v1.4z" fill="#fff"/>
</svg>
