<svg width="40" height="39" viewBox="0 0 40 39" fill="none" xmlns="http://www.w3.org/2000/svg">
    <path fill-rule="evenodd" clip-rule="evenodd" d="M35.378 7.757A19.31 19.31 0 0 1 39.38 19.79a19.208 19.208 0 0 1-7.094 14.675 19.307 19.307 0 0 1-24.818-.309A19.31 19.31 0 1 1 35.378 7.758zM6.757 9.397a16.734 16.734 0 0 0-3.422 9.943 16.644 16.644 0 0 0 3.733 10.736v-.386a7.723 7.723 0 0 1 7.852-7.57H25.22A7.725 7.725 0 0 1 32.814 30v.386A16.736 16.736 0 1 0 6.757 9.398z" fill="#007BFF"/>
    <path fill-rule="evenodd" clip-rule="evenodd" d="M20.224 6.67a6.437 6.437 0 1 1-.16 12.872 6.437 6.437 0 0 1 .16-12.872" fill="#007BFF"/>
</svg>
